<?xml version="1.0" encoding="UTF-8" standalone="no"?>
<!DOCTYPE svg PUBLIC "-//W3C//DTD SVG 1.1 Tiny//EN" "http://www.w3.org/Graphics/SVG/1.1/DTD/svg11-tiny.dtd">
<svg xmlns="http://www.w3.org/2000/svg" xmlns:xlink="http://www.w3.org/1999/xlink" width="44" height="44" viewBox="105.585 74.074 44 44">
<rect fill="none" height="44" width="44" x="105.585" y="74.074"/>
<linearGradient id="SVGID_2" gradientUnits="userSpaceOnUse" x1="117.14" y1="94.11" x2="146.99" y2="94.11">
<stop stop-color="#A5D288" offset="0"/>
<stop stop-color="#A2D085" offset="0.27"/>
<stop stop-color="#9BCA7D" offset="0.48"/>
<stop stop-color="#8EC06F" offset="0.68"/>
<stop stop-color="#7EB55D" offset="0.87"/>
<stop stop-color="#6EAA4F" offset="1"/>
</linearGradient>
<polygon fill="url(#SVGID_2)" points="117.137,83.5 117.618,79.434 146.991,86.86 143.509,108.785 141.842,108.246 "/>
<linearGradient id="SVGID_3" gradientUnits="userSpaceOnUse" x1="123.02" y1="75" x2="148.69" y2="104.01">
<stop stop-color="#BAD986" offset="0"/>
<stop stop-color="#B7D884" offset="0.24"/>
<stop stop-color="#AED27D" offset="0.43"/>
<stop stop-color="#9FCA70" offset="0.61"/>
<stop stop-color="#8CC15E" offset="0.78"/>
<stop stop-color="#70B64B" offset="0.94"/>
<stop stop-color="#63B246" offset="1"/>
</linearGradient>
<path d="M141.933,108.094c0.915,0.92-23.651-23.688-24.616-24.655 c0.019-0.151,0.408-3.444,0.448-3.789c0.372,0.094,28.732,7.263,29.031,7.338c-0.048,0.303-3.365,21.184-3.425,21.571 C143.079,108.466,142,108.115,141.933,108.094" fill="url(#SVGID_3)"/>
<path d="M143.032,108.61c-0.094-0.016-0.594-0.188-0.594-0.188s1.33-20.618,1.551-20.618l0.277,0.04 c0.222,0,0.4,0.179,0.4,0.4L143.032,108.61z" fill-opacity="0.24" />
<linearGradient id="SVGID_7" gradientUnits="userSpaceOnUse" x1="114.32" y1="96.34" x2="144.22" y2="96.34">
<stop stop-color="#FBAF4B" offset="0"/>
<stop stop-color="#FBAD48" offset="0.31"/>
<stop stop-color="#FAA53E" offset="0.56"/>
<stop stop-color="#F89930" offset="0.8"/>
<stop stop-color="#F6891F" offset="1"/>
</linearGradient>
<polygon fill="url(#SVGID_7)" points="114.318,87.056 114.516,82.685 144.223,87.005 142.486,109.992 139.294,109.096 114.347,87.143 "/>
<linearGradient id="SVGID_8" gradientUnits="userSpaceOnUse" x1="119.66" y1="77.69" x2="147.3" y2="104.68">
<stop stop-color="#FDC27F" offset="0"/>
<stop stop-color="#FDC17D" offset="0.22"/>
<stop stop-color="#FBBD76" offset="0.41"/>
<stop stop-color="#F9B668" offset="0.57"/>
<stop stop-color="#F7AD54" offset="0.73"/>
<stop stop-color="#F4A138" offset="0.88"/>
<stop stop-color="#F19720" offset="1"/>
</linearGradient>
<path d="M139.38,108.942c0.899,0.811-23.935-21.1-24.886-21.958c0.006-0.148,0.171-3.764,0.186-4.101 c0.37,0.053,29.05,4.224,29.361,4.27c-0.023,0.313-1.679,22.211-1.709,22.618C141.98,109.671,139.451,108.961,139.38,108.942" fill="url(#SVGID_8)"/>
<path d="M142.172,109.891c0.016,0-0.531-0.156-0.909-0.176c0,0-0.024-20.99-0.089-21.022 l0.089,0.012c0.589,0,1.066,0.544,1.066,1.214L142.172,109.891z" fill="#231F20" fill-opacity="0.23" />
<linearGradient id="SVGID_10" gradientUnits="userSpaceOnUse" x1="111.43" y1="99.17" x2="141.47" y2="99.17">
<stop stop-color="#74B8E5" offset="0"/>
<stop stop-color="#56A7DB" offset="1"/>
</linearGradient>
<polygon fill="url(#SVGID_10)" points="111.432,86.639 111.432,107.756 141.473,111.703 141.473,87.842 "/>
<linearGradient id="SVGID_11" gradientUnits="userSpaceOnUse" x1="111.95" y1="99.09" x2="140.61" y2="99.09">
<stop stop-color="#D8EEFB" offset="0"/>
<stop stop-color="#A3DCEA" offset="1"/>
</linearGradient>
<polygon fill="url(#SVGID_11)" points="111.948,87.154 111.948,107.339 140.614,111.016 140.614,88.528 "/>
<linearGradient id="SVGID_12" gradientUnits="userSpaceOnUse" x1="141.56" y1="87.76" x2="141.56" y2="111.66">
<stop stop-color="#3686C3" offset="0"/>
<stop stop-color="#245F98" offset="1"/>
</linearGradient>
<polygon fill="url(#SVGID_12)" points="141.643,111.364 141.47,111.704 141.47,87.842 141.643,88.162 "/>
<polygon fill="#CC4124" points="138.591,96.151 132.129,95.083 132.495,90.082 138.957,90.953 "/>
<path d="M139.314,90.919c0.011,0.002,0.017,0.007,0.027,0.01l0.012-0.202c-0.015,0.002-0.027,0.006-0.043,0.004 c-0.116-0.013-0.203-0.116-0.198-0.228c0.001-0.023,0.01-0.043,0.019-0.063l-0.237-0.028c0.006,0.021,0.012,0.043,0.01,0.066 c-0.007,0.111-0.104,0.19-0.221,0.177c-0.115-0.015-0.202-0.115-0.196-0.226c0.001-0.023,0.009-0.043,0.018-0.064l-0.235-0.027 c0.007,0.022,0.012,0.044,0.011,0.066c-0.007,0.111-0.104,0.19-0.22,0.178c-0.114-0.015-0.202-0.115-0.194-0.226 c0.001-0.022,0.009-0.045,0.017-0.063l-0.232-0.028c0.007,0.021,0.011,0.045,0.011,0.067c-0.008,0.11-0.105,0.188-0.219,0.175 c-0.113-0.013-0.199-0.114-0.192-0.224c0.001-0.024,0.007-0.044,0.017-0.063l-0.232-0.027c0.007,0.021,0.012,0.042,0.01,0.064 c-0.006,0.11-0.103,0.189-0.215,0.176c-0.113-0.014-0.199-0.113-0.191-0.224c0.001-0.022,0.009-0.043,0.016-0.063l-0.229-0.026 c0.006,0.022,0.01,0.044,0.009,0.066c-0.005,0.109-0.103,0.188-0.215,0.175c-0.111-0.015-0.196-0.113-0.189-0.223 c0.002-0.022,0.01-0.044,0.019-0.063l-0.229-0.027c0.007,0.021,0.01,0.043,0.01,0.066c-0.007,0.109-0.104,0.188-0.214,0.173 c-0.111-0.013-0.195-0.112-0.188-0.222c0.002-0.022,0.01-0.042,0.019-0.062l-0.227-0.026c0.007,0.021,0.01,0.043,0.009,0.064 c-0.007,0.109-0.102,0.187-0.212,0.174c-0.11-0.014-0.193-0.112-0.187-0.221c0.002-0.021,0.01-0.042,0.017-0.063l-0.223-0.026 c0.004,0.021,0.009,0.044,0.008,0.066c-0.006,0.108-0.101,0.185-0.21,0.173c-0.109-0.014-0.192-0.111-0.185-0.22 c0.002-0.023,0.007-0.044,0.017-0.063l-0.224-0.026c0.007,0.021,0.012,0.042,0.01,0.064c-0.008,0.107-0.1,0.187-0.208,0.173 c-0.108-0.013-0.19-0.111-0.185-0.219c0.001-0.022,0.009-0.042,0.019-0.063l-0.222-0.026c0.006,0.022,0.009,0.043,0.008,0.065 c-0.006,0.107-0.1,0.185-0.207,0.172s-0.188-0.11-0.182-0.217c0.002-0.024,0.008-0.044,0.017-0.063l-0.22-0.025 c0.007,0.021,0.011,0.041,0.01,0.063c-0.008,0.108-0.101,0.185-0.207,0.171c-0.106-0.012-0.188-0.109-0.18-0.216 c0.002-0.022,0.009-0.042,0.017-0.063l-0.18-0.021c0.001,0.014,0.006,0.024,0.005,0.038c-0.008,0.106-0.101,0.183-0.207,0.171 c-0.009-0.001-0.018-0.007-0.027-0.01l-0.008,0.14c0.009,0,0.019-0.004,0.028-0.003c0.107,0.013,0.188,0.111,0.181,0.219 c-0.007,0.108-0.099,0.184-0.208,0.172c-0.009-0.001-0.017-0.007-0.027-0.01l-0.013,0.205c0.011,0,0.018-0.002,0.028,0 c0.107,0.013,0.188,0.11,0.181,0.219c-0.006,0.109-0.099,0.185-0.206,0.17c-0.011-0.001-0.018-0.006-0.028-0.008l-0.015,0.206 c0.011,0,0.021-0.004,0.029-0.003c0.106,0.016,0.188,0.113,0.183,0.222c-0.008,0.108-0.101,0.184-0.209,0.17 c-0.008-0.001-0.017-0.007-0.027-0.01l-0.013,0.208c0.009,0,0.018-0.004,0.029-0.002c0.106,0.014,0.188,0.113,0.18,0.223 c-0.007,0.107-0.099,0.183-0.206,0.167c-0.011-0.001-0.02-0.005-0.027-0.008l-0.015,0.206c0.01,0,0.02-0.003,0.028-0.002 c0.107,0.016,0.188,0.115,0.183,0.224c-0.008,0.108-0.102,0.184-0.208,0.17c-0.011-0.002-0.018-0.008-0.028-0.011l-0.013,0.209 c0.009,0,0.019-0.004,0.029-0.002c0.106,0.015,0.188,0.114,0.181,0.223c-0.008,0.109-0.1,0.186-0.207,0.169 c-0.011-0.002-0.02-0.006-0.028-0.01l-0.015,0.208c0.011,0,0.019-0.004,0.029-0.002c0.107,0.017,0.188,0.117,0.181,0.226 c-0.006,0.108-0.1,0.184-0.206,0.168c-0.012-0.001-0.019-0.008-0.028-0.011l-0.015,0.209c0.01,0,0.02-0.002,0.028-0.001 c0.108,0.016,0.19,0.116,0.183,0.225c-0.008,0.109-0.101,0.186-0.208,0.168c-0.009-0.001-0.018-0.008-0.028-0.009l-0.013,0.208 c0.011,0,0.018-0.003,0.029-0.002c0.107,0.017,0.188,0.119,0.181,0.229c-0.008,0.108-0.1,0.183-0.207,0.167 c-0.011-0.002-0.02-0.008-0.028-0.012l-0.013,0.178c0.099,0.025,0.171,0.118,0.164,0.22c-0.002,0.024-0.008,0.047-0.018,0.066 l0.221,0.035c-0.007-0.022-0.012-0.047-0.01-0.071c0.007-0.107,0.101-0.181,0.207-0.165c0.107,0.019,0.188,0.119,0.181,0.227 c-0.001,0.024-0.009,0.046-0.018,0.067l0.223,0.033c-0.007-0.021-0.012-0.045-0.01-0.069c0.008-0.108,0.1-0.182,0.207-0.166 c0.107,0.017,0.189,0.119,0.185,0.229c-0.002,0.023-0.01,0.045-0.02,0.065l0.224,0.036c-0.007-0.022-0.011-0.047-0.01-0.071 c0.008-0.109,0.102-0.184,0.21-0.166c0.109,0.017,0.191,0.118,0.185,0.228c-0.001,0.023-0.009,0.048-0.018,0.067l0.224,0.035 c-0.005-0.023-0.01-0.047-0.008-0.071c0.008-0.109,0.101-0.184,0.21-0.167c0.109,0.019,0.193,0.12,0.186,0.229 c-0.001,0.024-0.007,0.047-0.018,0.066l0.229,0.037c-0.008-0.023-0.013-0.047-0.011-0.071c0.007-0.11,0.102-0.187,0.212-0.168 c0.11,0.017,0.194,0.119,0.188,0.229c-0.002,0.024-0.008,0.048-0.019,0.068l0.23,0.037c-0.008-0.024-0.013-0.049-0.011-0.073 c0.007-0.11,0.102-0.186,0.213-0.168c0.111,0.019,0.197,0.121,0.189,0.231c-0.002,0.025-0.008,0.047-0.018,0.067l0.231,0.037 c-0.008-0.023-0.013-0.047-0.011-0.072c0.007-0.11,0.103-0.186,0.215-0.168c0.112,0.017,0.198,0.12,0.191,0.231 c-0.002,0.024-0.01,0.049-0.019,0.069l0.232,0.037c-0.008-0.025-0.011-0.05-0.01-0.074c0.005-0.111,0.104-0.187,0.217-0.169 c0.113,0.019,0.197,0.123,0.192,0.234c-0.001,0.024-0.009,0.047-0.02,0.067l0.235,0.037c-0.008-0.023-0.013-0.047-0.012-0.072 c0.008-0.111,0.104-0.188,0.219-0.17s0.202,0.122,0.194,0.234c-0.001,0.024-0.009,0.049-0.018,0.069l0.235,0.036 c-0.008-0.023-0.012-0.048-0.011-0.072c0.007-0.112,0.105-0.188,0.219-0.171c0.116,0.02,0.204,0.124,0.197,0.236 c-0.002,0.025-0.008,0.048-0.019,0.068l0.238,0.039c-0.008-0.024-0.012-0.049-0.01-0.075c0.005-0.111,0.104-0.189,0.221-0.17 c0.115,0.018,0.203,0.124,0.197,0.236c-0.002,0.025-0.009,0.048-0.019,0.07l0.242,0.037c-0.004-0.017-0.009-0.035-0.008-0.053 c0.008-0.113,0.106-0.188,0.222-0.172c0.02,0.004,0.036,0.013,0.053,0.021l0.013-0.217c-0.01-0.001-0.018,0.001-0.027,0.001 c-0.117-0.02-0.206-0.124-0.199-0.237c0.007-0.112,0.105-0.189,0.222-0.172c0.011,0.001,0.017,0.007,0.026,0.01l0.014-0.214 c-0.011,0-0.019,0.003-0.027,0.001c-0.117-0.017-0.206-0.123-0.199-0.235c0.007-0.11,0.105-0.189,0.223-0.171 c0.008,0.001,0.017,0.007,0.026,0.008l0.011-0.214c-0.008,0-0.017,0.003-0.027,0.001c-0.114-0.016-0.204-0.12-0.197-0.232 c0.005-0.112,0.105-0.189,0.222-0.174c0.01,0.002,0.018,0.007,0.027,0.01l0.012-0.213c-0.011,0-0.018,0.001-0.028,0.001 c-0.116-0.017-0.203-0.121-0.198-0.232c0.007-0.112,0.105-0.19,0.222-0.175c0.01,0.001,0.019,0.007,0.026,0.01l0.014-0.213 c-0.011,0-0.02,0.003-0.028,0.002c-0.116-0.018-0.205-0.12-0.198-0.232s0.105-0.189,0.222-0.173 c0.011,0.001,0.017,0.005,0.026,0.008l0.014-0.213c-0.011,0-0.02,0.003-0.027,0.001c-0.117-0.014-0.206-0.119-0.199-0.23 c0.007-0.11,0.105-0.189,0.222-0.174c0.009,0.002,0.017,0.008,0.026,0.009l0.012-0.213c-0.009,0-0.018,0.003-0.028,0.002 c-0.114-0.015-0.203-0.117-0.196-0.229c0.005-0.111,0.105-0.189,0.22-0.176c0.011,0.002,0.02,0.008,0.027,0.01l0.013-0.214 c-0.011,0-0.018,0.003-0.028,0.002c-0.116-0.014-0.204-0.115-0.198-0.228c0.007-0.11,0.105-0.189,0.222-0.176 c0.011,0.001,0.019,0.007,0.026,0.01l0.014-0.212c-0.011,0-0.02,0.001-0.027,0.001c-0.117-0.014-0.206-0.115-0.199-0.227 C139.1,90.984,139.198,90.906,139.314,90.919z M138.558,96.088l-6.397-1.064l0.383-4.887l6.35,0.824L138.558,96.088z" fill="#FFFFFF"/>
<path d="M129.281,93.9c-1.055,0.178-1.858,0.011-2.746-0.474 c0.877,0.404,2.153,0.47,3.562-0.041c3.479-1.262,4.393,0.537,4.393,0.537C132.681,92.495,130.582,93.706,129.281,93.9 L129.281,93.9z M129.35,94.872c-1.055,0.176-1.858,0.009-2.745-0.476c0.878,0.404,2.152,0.472,3.562-0.039 c3.478-1.263,4.395,0.537,4.395,0.537C132.75,93.465,130.652,94.677,129.35,94.872L129.35,94.872z M129.21,92.93 c-1.055,0.176-1.859,0.009-2.746-0.476c0.877,0.404,2.152,0.471,3.562-0.039c3.478-1.262,4.394,0.536,4.394,0.536 C132.609,91.523,130.511,92.736,129.21,92.93L129.21,92.93z M129.14,91.959c-1.054,0.178-1.859,0.011-2.746-0.474 c0.877,0.404,2.153,0.47,3.562-0.041c3.479-1.263,4.396,0.536,4.396,0.536C132.54,90.552,130.441,91.764,129.14,91.959 L129.14,91.959z" fill="#446D92" fill-opacity="0.2" />
<path d="M135.787,99.213c0,0,0,4.979,0,6.008 s-0.686,0.688-0.686,0.688s-14.084-1.508-14.934-1.717c-0.741-0.184-0.687-0.686-0.687-0.686s0-4.979,0-5.666 s0.858-0.516,0.858-0.516s13.551,1.121,14.763,1.203C135.819,98.574,135.787,99.213,135.787,99.213L135.787,99.213z" fill="#0F001F" fill-opacity="0.25" />
<linearGradient id="SVGID_13" gradientUnits="userSpaceOnUse" x1="119.33" y1="101.42" x2="135.64" y2="101.42">
<stop stop-color="#FFFFFF" offset="0"/>
<stop stop-color="#F5F9FC" offset="1"/>
</linearGradient>
<path d="M135.636,99c0,0,0,4.979,0,6.008s-0.686,0.688-0.686,0.688s-14.085-1.508-14.935-1.717 c-0.741-0.184-0.687-0.687-0.687-0.687s0-4.979,0-5.665c0-0.688,0.858-0.516,0.858-0.516s13.552,1.121,14.764,1.202 C135.668,98.362,135.636,99,135.636,99L135.636,99z" fill="url(#SVGID_13)"/>
<path d="M111.617,89.262c-0.063,0-0.123,0.002-0.185,0.002v-2.625 l30.041,1.202v9.104C134.069,92.074,123.71,89.262,111.617,89.262L111.617,89.262z" fill="#FFFFFF" fill-opacity="0.25" />
<linearGradient id="SVGID_14" gradientUnits="userSpaceOnUse" x1="148.5" y1="107.51" x2="106.79" y2="107.51">
<stop stop-color="#FCD959" offset="0"/>
<stop stop-color="#FBC64A" offset="0.21"/>
<stop stop-color="#FBCB4D" offset="0.24"/>
<stop stop-color="#FCDB58" offset="0.35"/>
<stop stop-color="#FCE15C" offset="0.42"/>
<stop stop-color="#FBDC5B" offset="0.53"/>
<stop stop-color="#F9CE55" offset="0.69"/>
<stop stop-color="#F5B84C" offset="0.88"/>
<stop stop-color="#F5B84C" offset="0.88"/>
<stop stop-color="#FBDB5C" offset="1"/>
</linearGradient>
<path d="M148.35,108.015c-1.304-3.304-4.799-4.506-8.053-4.504c-0.684,0-1.358,0.053-2.004,0.15 c-4.305,0.654-8.352,2.646-12.408,4.011c-3.642,1.226-7.412,1.98-11.248,1.979c-0.335,0-0.67-0.006-1.005-0.016 c-1.8-0.059-4.04-0.284-5.268-1.639c-0.478-0.524-0.672-1.141-0.673-1.784c0-0.816,0.321-1.678,0.791-2.384 c0.037-0.055,0.077-0.111,0.116-0.169c0,0,0.084-0.144-0.008-0.235c-0.091-0.092-0.234-0.001-0.234-0.001 c-1.054,0.749-1.559,2.021-1.56,3.266c0,0.29,0.027,0.577,0.082,0.858c0.313,1.63,1.542,2.705,3.01,3.265 c1.509,0.575,3.156,0.716,4.728,0.788c0.446,0.02,0.893,0.03,1.34,0.03c1.691,0,3.382-0.147,5.046-0.444 c4.259-0.762,8.247-2.509,12.264-3.95c2.519-0.903,5.514-1.979,8.329-1.979c1.125,0,2.222,0.172,3.253,0.59 c1.232,0.5,2.326,1.347,3.212,2.345c0,0,0.061,0.125,0.217,0.037C148.434,108.143,148.35,108.015,148.35,108.015z" fill="url(#SVGID_14)"/>
</svg>