<?xml version="1.0" encoding="utf-8"?>
<!DOCTYPE svg PUBLIC "-//W3C//DTD SVG 1.1 Tiny//EN" "http://www.w3.org/Graphics/SVG/1.1/DTD/svg11-tiny.dtd">
<svg xmlns="http://www.w3.org/2000/svg" xmlns:xlink="http://www.w3.org/1999/xlink" width="24" height="24" viewBox="0 0 24 24">
<rect fill="none" height="24" width="24"/>
<path fill="#FFFFFF" d="M20.024,19.734c0,0.297-0.238,0.489-0.497,0.489c-0.262,0-0.49-0.185-0.49-0.483c0-0.258,0.197-0.491,0.494-0.491C19.797,19.249,20.024,19.439,20.024,19.734z M19.964,19.738c0-0.248-0.188-0.435-0.433-0.435c-0.252,0-0.438,0.187-0.438,0.435c0,0.252,0.205,0.438,0.438,0.438C19.783,20.176,19.964,19.975,19.964,19.738z M19.769,20.045h-0.106l-0.069-0.151c-0.033-0.074-0.07-0.112-0.11-0.112h-0.06v0.264h-0.088v-0.626h0.177c0.119,0,0.229,0.044,0.229,0.171c0,0.074-0.05,0.146-0.158,0.171v0.002c0.033,0.009,0.07,0.048,0.104,0.117L19.769,20.045z M19.647,19.6c0-0.066-0.034-0.106-0.145-0.106h-0.079v0.213h0.094C19.604,19.706,19.647,19.672,19.647,19.6z"/>
<radialGradient id="SVGID_1" gradientUnits="userSpaceOnUse" cx="12.33" cy="13.53" r="9.43">
<stop stop-color="#FFFFFF" offset="0.25"/>
<stop stop-color="#000000" offset="1"/>
</radialGradient>
<path opacity="0.2" fill="url(#SVGID_1)" enable-background="new " d="M3.988,12.398c-0.017,0.01-0.026,0.008-0.038,0.04l-1.926,6.53c-0.011,0.033,0.008,0.068,0.031,0.09c0,0,0.131,0.096,0.133,0.097c0.041,0.028,0.065,0.019,0.078,0.017c3.298-1.234,5.002-0.924,7.124,0.389l0.004,0.006l0,0c0.01,0.005,0.042,0.02,0.071,0.007c0,0,0.084-0.05,0.109-0.064l0,0l0.009-0.007c0.018-0.012,0.042-0.028,0.048-0.058l0.002-0.007l0,0c0.004-0.011,1.983-6.575,1.983-6.575c0.007-0.03-0.006-0.063-0.03-0.082C9.031,11.105,6.954,11.21,3.988,12.398z M12.394,13.491c-0.038,0.026-0.135,0.091-0.152,0.141L10.313,20.1c-0.035,0.098,0.055,0.151,0.066,0.156c2.595,1.692,5.201,1.686,8.082,0.491c0.002,0,0.049-0.029,0.064-0.061c0-0.002,1.885-6.365,1.885-6.367c0.01-0.052-0.004-0.085-0.031-0.114l-0.158-0.123c-0.01-0.011-0.037-0.028-0.105-0.019c-3.7,1.216-5.648,0.668-7.571-0.587C12.505,13.455,12.458,13.447,12.394,13.491z M14.678,5.58c-0.074,0.054-0.139,0.096-0.156,0.156l-1.936,6.485c-0.017,0.067-0.006,0.105,0.06,0.149c2.486,1.691,5.264,1.702,8.062,0.487c0.027-0.009,0.053-0.034,0.066-0.062c0-0.001,1.967-6.543,1.967-6.543c0.021-0.074-0.03-0.124-0.09-0.175c-0.026-0.024-0.063-0.057-0.088-0.067c-0.055-0.024-0.108-0.017-0.124-0.007c-0.001,0-0.002,0-0.002,0l0,0c-3.356,1.343-5.374,1.029-7.61-0.439C14.768,5.54,14.74,5.542,14.678,5.58z M6.245,4.441L6.245,4.441C6.239,4.443,6.217,4.451,6.209,4.48l-1.955,6.549c-0.009,0.032,0.002,0.083,0.026,0.101c0.002,0.002,0.147,0.109,0.15,0.111c0.036,0.014,0.028,0.011,0.098-0.012c3.296-1.268,5.097-0.888,7.107,0.354c0.039,0.021,0.064,0.025,0.089,0.019l0.123-0.053c0.016-0.009,0.037-0.021,0.053-0.063l1.952-6.53c0.006-0.024,0.003-0.058-0.025-0.079C11.438,3.206,9.207,3.261,6.245,4.441z"/>
<path fill="#FFFFFF" d="M17.984,20.216c0.02-0.011,0.051-0.038,0.061-0.063c0,0,1.875-6.541,1.877-6.543l-0.002-0.003l0,0c0.002-0.011,0.002-0.021,0.002-0.028c0-0.054-0.031-0.086-0.033-0.086c0.002,0-0.154-0.126-0.154-0.126l0,0l0,0c-0.012-0.012-0.039-0.028-0.108-0.021C19.359,13.453,16.719,20.688,17.984,20.216z M20.226,12.327c0.014-0.009,0.052-0.028,0.066-0.063l1.957-6.724c0.021-0.074-0.034-0.135-0.089-0.183c-0.092-0.093-0.152-0.097-0.215-0.074C21.873,5.362,18.964,12.428,20.226,12.327z"/>
<radialGradient id="SVGID_2" gradientUnits="userSpaceOnUse" cx="11.6" cy="11.99" r="10.38">
<stop stop-color="#D1E7ED" offset="0"/>
<stop stop-color="#CDE4EC" offset="0.1"/>
<stop stop-color="#C0DCE7" offset="0.2"/>
<stop stop-color="#ADD0E1" offset="0.3"/>
<stop stop-color="#3982B1" offset="0.65"/>
<stop stop-color="#3474AA" offset="0.72"/>
<stop stop-color="#285699" offset="0.9"/>
<stop stop-color="#244B93" offset="1"/>
</radialGradient>
<path fill="url(#SVGID_2)" d="M3.534,11.72c3.933-1.621,5.839-0.756,7.543,0.403l-1.969,6.769c-1.712-1.15-3.574-2.097-7.522-0.465l1.925-6.697L3.534,11.72z"/>
<radialGradient id="SVGID_3" gradientUnits="userSpaceOnUse" cx="11.79" cy="11.82" r="10.63">
<stop stop-color="#D8EEED" offset="0"/>
<stop stop-color="#98D8D7" offset="0.17"/>
<stop stop-color="#8ED3D3" offset="0.22"/>
<stop stop-color="#74C6CA" offset="0.31"/>
<stop stop-color="#49B1BA" offset="0.42"/>
<stop stop-color="#3BAAB5" offset="0.45"/>
<stop stop-color="#2D81A4" offset="0.56"/>
<stop stop-color="#215B94" offset="0.68"/>
<stop stop-color="#19448B" offset="0.78"/>
<stop stop-color="#163B87" offset="0.84"/>
<stop stop-color="#0B317D" offset="1"/>
</radialGradient>
<path fill="url(#SVGID_3)" d="M1.729,18.626c0.012,0.003,0.037-0.012,0.037-0.012c0.026,0.021,0.05,0.033,0.05,0.033S1.772,18.656,1.729,18.626z"/>
<path fill="#152469" d="M9.04,18.969c0,0,0.027,0.022,0.057,0.017l-0.118,0.069c-0.037,0.019-0.077-0.01-0.077-0.01L9.04,18.969z"/>
<radialGradient id="SVGID_4" gradientUnits="userSpaceOnUse" cx="11.61" cy="12.07" r="10.38">
<stop stop-color="#D8EEED" offset="0"/>
<stop stop-color="#98D8D7" offset="0.17"/>
<stop stop-color="#8ED3D3" offset="0.22"/>
<stop stop-color="#74C6CA" offset="0.31"/>
<stop stop-color="#49B1BA" offset="0.42"/>
<stop stop-color="#3BAAB5" offset="0.45"/>
<stop stop-color="#2D81A4" offset="0.56"/>
<stop stop-color="#215B94" offset="0.68"/>
<stop stop-color="#19448B" offset="0.78"/>
<stop stop-color="#163B87" offset="0.84"/>
<stop stop-color="#152469" offset="1"/>
</radialGradient>
<path fill="url(#SVGID_4)" d="M1.769,18.616c0,0-0.022,0.011-0.036,0.011l-0.129-0.101l-0.003-0.001c0.021,0.004,0.041,0.001,0.048,0.001L1.769,18.616z"/>
<path fill="#152469" d="M9.106,18.873c0.014,0.01,0.028,0.021,0.04,0.048c-0.006,0.035-0.034,0.052-0.052,0.066c-0.024,0.005-0.058-0.019-0.058-0.019C9.054,18.954,9.086,18.931,9.106,18.873z"/>
<path fill="#172E65" d="M1.603,18.527c-0.026-0.021-0.042-0.059-0.032-0.094l0.023-0.009c-0.009,0.05,0.028,0.086,0.052,0.102C1.646,18.527,1.626,18.535,1.603,18.527z"/>
<radialGradient id="SVGID_5" gradientUnits="userSpaceOnUse" cx="11.6" cy="11.96" r="10.42">
<stop stop-color="#D8EEED" offset="0"/>
<stop stop-color="#98D8D7" offset="0.17"/>
<stop stop-color="#8ED3D3" offset="0.22"/>
<stop stop-color="#74C6CA" offset="0.31"/>
<stop stop-color="#49B1BA" offset="0.42"/>
<stop stop-color="#3BAAB5" offset="0.45"/>
<stop stop-color="#2D81A4" offset="0.56"/>
<stop stop-color="#215B94" offset="0.68"/>
<stop stop-color="#19448B" offset="0.78"/>
<stop stop-color="#163B87" offset="0.84"/>
<stop stop-color="#0B317D" offset="1"/>
</radialGradient>
<path fill="url(#SVGID_5)" d="M1.761,18.609c3.757-1.468,5.44-0.668,7.152,0.433c-1.025-0.659-2.079-1.185-3.534-1.195c-0.975-0.007-2.125,0.24-3.566,0.801C1.813,18.647,1.783,18.635,1.761,18.609z"/>
<path fill="#094B8F" d="M9.039,18.973c-1.712-1.151-3.485-2.031-7.389-0.445c-0.025-0.016-0.068-0.056-0.057-0.104c3.962-1.688,5.804-0.703,7.517,0.448C9.093,18.937,9.058,18.957,9.039,18.973z"/>
<path fill="#094B8F" d="M9.041,18.973l-0.139,0.071c-1.711-1.1-3.443-1.862-7.133-0.429l-0.123-0.089C5.551,16.94,7.328,17.822,9.041,18.973z"/>
<linearGradient id="SVGID_6" gradientUnits="userSpaceOnUse" x1="11.03" y1="12.31" x2="9.4" y2="18.02">
<stop stop-color="#98D8D7" offset="0"/>
<stop stop-color="#152469" offset="1"/>
</linearGradient>
<path fill="url(#SVGID_6)" d="M9.106,18.876l1.971-6.754c0.022,0.015,0.034,0.024,0.044,0.038l-1.975,6.764C9.136,18.892,9.106,18.876,9.106,18.876z"/>
<radialGradient id="SVGID_7" gradientUnits="userSpaceOnUse" cx="11.61" cy="11.96" r="10.6">
<stop stop-color="#D8EEED" offset="0"/>
<stop stop-color="#98D8D7" offset="0.17"/>
<stop stop-color="#8ED3D3" offset="0.22"/>
<stop stop-color="#74C6CA" offset="0.31"/>
<stop stop-color="#49B1BA" offset="0.42"/>
<stop stop-color="#3BAAB5" offset="0.45"/>
<stop stop-color="#2D81A4" offset="0.56"/>
<stop stop-color="#215B94" offset="0.68"/>
<stop stop-color="#19448B" offset="0.78"/>
<stop stop-color="#163B87" offset="0.84"/>
<stop stop-color="#152469" offset="1"/>
</radialGradient>
<path fill="url(#SVGID_7)" d="M11.09,12.075h0.003c0.024,0.017,0.035,0.052,0.028,0.085v0.003c-0.012-0.011-0.021-0.024-0.044-0.04L11.09,12.075z"/>
<polygon opacity="0.66" fill="#063367" enable-background="new " points="3.489,11.724 3.511,11.729 1.593,18.425 1.57,18.434 "/>
<linearGradient id="SVGID_8" gradientUnits="userSpaceOnUse" x1="1.57" y1="15.19" x2="3.72" y2="15.19">
<stop stop-color="#DEF3F1" offset="0"/>
<stop stop-color="#5085BC" offset="1"/>
</linearGradient>
<path opacity="0.42" fill="url(#SVGID_8)" enable-background="new " d="M3.489,11.724l-0.09,0.321l-1.826,6.389c-0.011,0.034,0.006,0.072,0.031,0.093l0.129,0.103c0,0,0-0.003,0,0c0.017,0.01,0.034,0.015,0.047,0.018l1.943-6.735L3.72,11.906L3.511,11.73L3.489,11.724z M1.597,18.423v-0.002c0.009-0.004,0.017-0.006,0.027-0.01C1.614,18.415,1.605,18.417,1.597,18.423z M1.646,18.527c-0.013-0.01-0.028-0.021-0.04-0.037C1.618,18.506,1.634,18.518,1.646,18.527C1.646,18.526,1.646,18.526,1.646,18.527z"/>
<linearGradient id="SVGID_9" gradientUnits="userSpaceOnUse" x1="8.93" y1="15.58" x2="11.12" y2="15.58">
<stop stop-color="#DEF3F1" offset="0"/>
<stop stop-color="#5085BC" offset="1"/>
</linearGradient>
<path opacity="0.42" fill="url(#SVGID_9)" enable-background="new " d="M11.116,12.104l-0.041,0.021l-0.163,0.161c0.001,0,0.001,0,0.001,0.001c-0.267,0.909-1.757,6.004-1.984,6.768c0.015,0.004,0.032,0.006,0.048-0.002l0.119-0.07H9.094c0.017-0.013,0.044-0.03,0.052-0.063c0,0.002,0,0.002,0,0.002l1.91-6.541l0.066-0.224c0.002-0.013,0.002-0.023,0-0.035C11.122,12.117,11.12,12.111,11.116,12.104z"/>
<linearGradient id="SVGID_10" gradientUnits="userSpaceOnUse" x1="3.51" y1="11.53" x2="11.09" y2="11.53">
<stop stop-color="#094992" offset="0"/>
<stop stop-color="#8ACDE1" offset="0.67"/>
<stop stop-color="#E6F6F9" offset="1"/>
</linearGradient>
<path fill="url(#SVGID_10)" d="M11.077,12.124l-0.164,0.163c-0.566-0.378-2.131-1.349-3.896-1.204C5.583,11.2,4.32,11.661,3.722,11.91l-0.211-0.182l0.015-0.046c3.952-1.634,5.856-0.766,7.566,0.393H11.09h0.003L11.077,12.124z"/>
<linearGradient id="SVGID_11" gradientUnits="userSpaceOnUse" x1="3.53" y1="11.68" x2="3.53" y2="11.68">
<stop stop-color="#7D9EC4" offset="0"/>
<stop stop-color="#151D89" offset="1"/>
</linearGradient>
<path fill="url(#SVGID_11)" d="M3.526,11.682"/>
<linearGradient id="SVGID_12" gradientUnits="userSpaceOnUse" x1="3.69" y1="11.66" x2="10.94" y2="11.66">
<stop stop-color="#BAC7E1" offset="0.01"/>
<stop stop-color="#7090C3" offset="0.22"/>
<stop stop-color="#C8EAEF" offset="0.54"/>
<stop stop-color="#FFFFFF" offset="1"/>
</linearGradient>
<path opacity="0.33" fill="url(#SVGID_12)" enable-background="new " d="M3.694,11.886c3.953-1.633,5.716-0.554,7.25,0.372l-0.03,0.029c-1.578-0.978-3.257-1.937-7.192-0.375L3.694,11.886z"/>
<linearGradient id="SVGID_13" gradientUnits="userSpaceOnUse" x1="3.51" y1="11.45" x2="11.09" y2="11.45">
<stop stop-color="#7090C3" offset="0.01"/>
<stop stop-color="#C0E7ED" offset="0.54"/>
<stop stop-color="#FFFFFF" offset="1"/>
</linearGradient>
<path opacity="0.33" fill="url(#SVGID_13)" enable-background="new " d="M3.526,11.682c3.952-1.634,5.779-0.8,7.567,0.394l-0.016,0.048c-1.877-1.218-3.633-2-7.566-0.395L3.526,11.682z"/>
<radialGradient id="SVGID_14" gradientUnits="userSpaceOnUse" cx="3.5" cy="11.7" r="0.02">
<stop stop-color="#7D9EC4" offset="0"/>
<stop stop-color="#0A50A1" offset="1"/>
</radialGradient>
<path fill="url(#SVGID_14)" d="M3.511,11.729l-0.022-0.005c0.008-0.028,0.028-0.038,0.034-0.04l0.004-0.001C3.526,11.682,3.522,11.695,3.511,11.729z"/>
<radialGradient id="SVGID_15" gradientUnits="userSpaceOnUse" cx="-1.49" cy="18.16" r="12.8">
<stop stop-color="#D8EEED" offset="0"/>
<stop stop-color="#98D8D7" offset="0.17"/>
<stop stop-color="#8ED3D3" offset="0.22"/>
<stop stop-color="#74C6CA" offset="0.31"/>
<stop stop-color="#49B1BA" offset="0.42"/>
<stop stop-color="#3BAAB5" offset="0.45"/>
<stop stop-color="#359FB5" offset="0.5"/>
<stop stop-color="#2988B4" offset="0.63"/>
<stop stop-color="#257FB4" offset="0.71"/>
<stop stop-color="#4161AA" offset="1"/>
</radialGradient>
<path opacity="0.5" fill="url(#SVGID_15)" enable-background="new " d="M9.043,18.971c-1.713-1.15-3.485-2.03-7.389-0.445c-0.026-0.015-0.068-0.054-0.058-0.105c3.963-1.688,5.804-0.702,7.518,0.449C9.096,18.935,9.062,18.956,9.043,18.971z"/>
<radialGradient id="SVGID_16" gradientUnits="userSpaceOnUse" cx="11.59" cy="12.21" r="9.66">
<stop stop-color="#FCF5B0" offset="0"/>
<stop stop-color="#F7EDA0" offset="0.17"/>
<stop stop-color="#F3E591" offset="0.28"/>
<stop stop-color="#FCD118" offset="0.65"/>
<stop stop-color="#F7A50C" offset="0.8"/>
<stop stop-color="#F38603" offset="0.93"/>
<stop stop-color="#F27B00" offset="1"/>
</radialGradient>
<path fill="url(#SVGID_16)" d="M12.108,12.777c1.712,1.149,3.46,1.994,7.481,0.617l-1.877,6.528c-3.945,1.633-5.839,0.71-7.548-0.449L12.108,12.777z"/>
<linearGradient id="SVGID_17" gradientUnits="userSpaceOnUse" x1="18.01" y1="20.07" x2="17.97" y2="20.22">
<stop stop-color="#DD980D" offset="0"/>
<stop stop-color="#A75D0F" offset="1"/>
</linearGradient>
<path fill="url(#SVGID_17)" d="M18.047,20.155c-0.02,0.037-0.053,0.058-0.063,0.063c-0.004,0-0.004,0.002-0.004,0.002s-0.035,0.002-0.064-0.021c0.076-0.043,0.1-0.127,0.1-0.127S18.061,20.113,18.047,20.155z"/>
<linearGradient id="SVGID_18" gradientUnits="userSpaceOnUse" x1="18.01" y1="16.86" x2="19.92" y2="16.86">
<stop stop-color="#DEB150" offset="0"/>
<stop stop-color="#FFF8B2" offset="1"/>
</linearGradient>
<path fill="url(#SVGID_18)" d="M18.047,20.155c0.008-0.037-0.035-0.069-0.035-0.069l1.871-6.522c0,0,0.03,0.027,0.041,0.05L18.047,20.155z"/>
<linearGradient id="SVGID_19" gradientUnits="userSpaceOnUse" x1="19.9" y1="13.49" x2="19.9" y2="13.62">
<stop stop-color="#C67C0C" offset="0.01"/>
<stop stop-color="#DD980D" offset="1"/>
</linearGradient>
<path fill="url(#SVGID_19)" d="M19.922,13.614c0,0-0.008-0.02-0.041-0.046c0.018-0.064,0.006-0.076,0.006-0.076l0.005,0.002C19.891,13.494,19.939,13.539,19.922,13.614z"/>
<linearGradient id="SVGID_20" gradientUnits="userSpaceOnUse" x1="19.63" y1="13.34" x2="19.7" y2="13.47">
<stop stop-color="#FED30E" offset="0.01"/>
<stop stop-color="#A75D0F" offset="1"/>
</linearGradient>
<path fill="url(#SVGID_20)" d="M19.734,13.458c0,0-0.051-0.063-0.156-0.045c0.004-0.023,0.014-0.052,0.047-0.064c0.064-0.011,0.094,0.006,0.107,0.021c0.008,0.008,0.012,0.014,0.012,0.014C19.752,13.42,19.734,13.458,19.734,13.458z"/>
<linearGradient id="SVGID_21" gradientUnits="userSpaceOnUse" x1="19.83" y1="13.45" x2="19.78" y2="13.5">
<stop stop-color="#FED30E" offset="0.01"/>
<stop stop-color="#A75D0F" offset="1"/>
</linearGradient>
<path fill="url(#SVGID_21)" d="M19.732,13.368l0.156,0.126c0.01,0.041-0.008,0.083-0.008,0.083l-0.154-0.123C19.729,13.454,19.744,13.405,19.732,13.368z"/>
<polygon opacity="0.66" fill="#B37E00" enable-background="new " points="17.844,19.965 19.727,13.444 19.885,13.569 18.016,20.09 18.01,20.107 "/>
<linearGradient id="SVGID_22" gradientUnits="userSpaceOnUse" x1="12.09" y1="13.44" x2="19.63" y2="13.44">
<stop stop-color="#FFF8FB" offset="0"/>
<stop stop-color="#FEC236" offset="1"/>
</linearGradient>
<path fill="url(#SVGID_22)" d="M19.584,13.42c-3.961,1.353-5.776,0.549-7.485-0.604c0.004-0.012,0.01-0.042-0.008-0.07c1.71,1.149,3.603,1.935,7.535,0.604C19.596,13.368,19.592,13.396,19.584,13.42z"/>
<polygon fill="#D9A200" points="11.791,12.896 11.923,12.808 10.019,19.45 9.869,19.567 9.869,19.552 "/>
<linearGradient id="SVGID_23" gradientUnits="userSpaceOnUse" x1="18.8" y1="16.71" x2="18.63" y2="16.66">
<stop stop-color="#B37E00" offset="0"/>
<stop stop-color="#FF9E00" offset="1"/>
</linearGradient>
<path opacity="0.66" fill="url(#SVGID_23)" enable-background="new " d="M17.693,19.929l1.886-6.518c0.003,0,0.007-0.006,0.011-0.006c0.098-0.011,0.145,0.042,0.145,0.042l-1.875,6.51C17.857,19.957,17.779,19.895,17.693,19.929z"/>
<path fill="#A75D0F" d="M17.982,20.219c-3.867,1.654-6.351,0.635-8.061-0.516l0.018-0.014c1.71,1.15,4.342,2.109,7.977,0.505C17.943,20.217,17.982,20.219,17.982,20.219z"/>
<linearGradient id="SVGID_24" gradientUnits="userSpaceOnUse" x1="17.92" y1="19.99" x2="17.84" y2="20.17">
<stop stop-color="#FFD100" offset="0.01"/>
<stop stop-color="#A8710A" offset="1"/>
</linearGradient>
<path opacity="0.66" fill="url(#SVGID_24)" enable-background="new " d="M17.857,19.955l0.158,0.136c0,0-0.021,0.077-0.109,0.112l-0.161-0.134C17.832,20.033,17.857,19.955,17.857,19.955z"/>
<linearGradient id="SVGID_25" gradientUnits="userSpaceOnUse" x1="10.1" y1="20.18" x2="17.78" y2="20.18">
<stop stop-color="#DD980D" offset="0"/>
<stop stop-color="#FDDA10" offset="0.4"/>
<stop stop-color="#DD980D" offset="1"/>
</linearGradient>
<path fill="url(#SVGID_25)" d="M17.697,19.925c-0.016,0.1,0.082,0.163,0.082,0.163c-4.068,1.515-5.859,0.596-7.681-0.501c0.031-0.022,0.048-0.041,0.064-0.111c0.004,0.002,0.012,0.004,0.016,0.007C11.941,20.567,13.988,21.459,17.697,19.925z"/>
<path fill="#C67C0C" d="M9.94,19.697l0.158-0.114c1.566,0.978,3.763,2.045,7.657,0.482l0.159,0.136C14.297,21.806,11.649,20.847,9.94,19.697z"/>
<path fill="#DD980D" d="M9.954,19.701l-0.019,0.014c0,0-0.103-0.058-0.067-0.163C9.877,19.655,9.954,19.701,9.954,19.701z"/>
<linearGradient id="SVGID_26" gradientUnits="userSpaceOnUse" x1="10.05" y1="19.64" x2="9.92" y2="19.5">
<stop stop-color="#DD980D" offset="0.1"/>
<stop stop-color="#FDDA10" offset="0.7"/>
<stop stop-color="#DD980D" offset="1"/>
</linearGradient>
<path fill="url(#SVGID_26)" d="M9.869,19.552l0.149-0.123c-0.008,0.11,0.096,0.149,0.096,0.149l-0.163,0.125C9.952,19.703,9.861,19.659,9.869,19.552z"/>
<linearGradient id="SVGID_27" gradientUnits="userSpaceOnUse" x1="10.05" y1="19.41" x2="10.14" y2="19.57">
<stop stop-color="#DD980D" offset="0"/>
<stop stop-color="#FEBF0F" offset="0.4"/>
<stop stop-color="#FED30E" offset="0.8"/>
<stop stop-color="#DD980D" offset="1"/>
</linearGradient>
<path fill="url(#SVGID_27)" d="M10.006,19.434c0.053-0.021,0.103,0.004,0.159,0.037c-0.02,0.069-0.032,0.094-0.062,0.115C10.068,19.567,9.999,19.522,10.006,19.434z"/>
<path fill="#DD980D" d="M11.948,12.751l-0.029,0.057l-0.132,0.094c0.009-0.044,0.118-0.123,0.152-0.145C11.943,12.754,11.948,12.751,11.948,12.751z"/>
<radialGradient id="SVGID_28" gradientUnits="userSpaceOnUse" cx="11.99" cy="12.72" r="0.09">
<stop stop-color="#FEEB71" offset="0"/>
<stop stop-color="#DD980D" offset="1"/>
</radialGradient>
<path fill="url(#SVGID_28)" d="M12.096,12.815c-0.079-0.044-0.149-0.022-0.177-0.008c0.004-0.015,0.022-0.052,0.022-0.052c0.063-0.04,0.09-0.04,0.15-0.013C12.108,12.773,12.103,12.798,12.096,12.815z"/>
<linearGradient id="SVGID_29" gradientUnits="userSpaceOnUse" x1="11.14" y1="16.15" x2="10.96" y2="16.1">
<stop stop-color="#FEEFBB" offset="0.01"/>
<stop stop-color="#FFBF00" offset="1"/>
</linearGradient>
<path fill="url(#SVGID_29)" d="M10.179,19.482c-0.056-0.034-0.12-0.06-0.173-0.036l1.917-6.638c0.029-0.014,0.097-0.037,0.176,0.009L10.179,19.482z"/>
<linearGradient id="SVGID_30" gradientUnits="userSpaceOnUse" x1="11.72" y1="13.52" x2="19.91" y2="13.52">
<stop stop-color="#FCA859" offset="0.01"/>
<stop stop-color="#FDC30F" offset="0.21"/>
<stop stop-color="#B51C00" offset="1"/>
</linearGradient>
<path opacity="0.33" fill="url(#SVGID_30)" enable-background="new " d="M11.824,12.852c0.586,0.509,3.127,2.585,8.066,0.643l-0.156-0.126c-0.016-0.015-0.045-0.03-0.107-0.021c-3.932,1.333-5.824,0.548-7.534-0.604c0,0.002,0,0.002,0,0.002c-0.058-0.03-0.086-0.029-0.149,0.012C11.863,12.812,11.863,12.812,11.824,12.852z"/>
<linearGradient id="SVGID_31" gradientUnits="userSpaceOnUse" x1="11.79" y1="13.62" x2="19.92" y2="13.62">
<stop stop-color="#FFF6D8" offset="0.01"/>
<stop stop-color="#FDDA10" offset="0.53"/>
<stop stop-color="#F9BD0C" offset="1"/>
</linearGradient>
<path opacity="0.33" fill="url(#SVGID_31)" enable-background="new " d="M19.891,13.494L19.891,13.494c-4.941,1.942-7.48-0.135-8.066-0.643c-0.016,0.017-0.026,0.03-0.033,0.043v0.001l-0.002,0.007c0,0,0,0,0,0.002v-0.002v0.004c0.511,0.447,3.063,2.67,8.135,0.66C19.916,13.521,19.891,13.494,19.891,13.494z"/>
<linearGradient id="SVGID_32" gradientUnits="userSpaceOnUse" x1="17.79" y1="20" x2="17.68" y2="19.9">
<stop stop-color="#EAB849" offset="0"/>
<stop stop-color="#EDC15A" offset="0.07"/>
<stop stop-color="#F3D783" offset="0.28"/>
<stop stop-color="#F8E8A4" offset="0.48"/>
<stop stop-color="#FCF5BC" offset="0.67"/>
<stop stop-color="#FEFCCA" offset="0.85"/>
<stop stop-color="#FFFFCF" offset="1"/>
</linearGradient>
<path fill="url(#SVGID_32)" d="M17.756,20.066c0,0-0.072-0.046-0.059-0.146c0.1-0.026,0.16,0.036,0.16,0.036S17.842,20.028,17.756,20.066z"/>
<radialGradient id="SVGID_33" gradientUnits="userSpaceOnUse" cx="11.3" cy="10.89" r="9.17">
<stop stop-color="#EFD815" offset="0"/>
<stop stop-color="#EFD415" offset="0.11"/>
<stop stop-color="#EDC614" offset="0.22"/>
<stop stop-color="#EBB112" offset="0.33"/>
<stop stop-color="#E89211" offset="0.45"/>
<stop stop-color="#E36C0E" offset="0.57"/>
<stop stop-color="#E04C0C" offset="0.65"/>
<stop stop-color="#CE2907" offset="0.78"/>
<stop stop-color="#BF0B02" offset="0.92"/>
<stop stop-color="#B90000" offset="1"/>
</radialGradient>
<path fill="url(#SVGID_33)" d="M11.406,10.901C10.377,10.208,9.27,9.56,7.695,9.548c-1.037-0.007-2.273,0.288-3.844,0.936l1.945-6.74c3.946-1.631,5.843-0.706,7.555,0.452L11.406,10.901z"/>
<path fill="#BC1B00" d="M11.402,10.898l1.948-6.702c0.021,0.013,0.028,0.023,0.04,0.038l-1.946,6.713C11.436,10.919,11.402,10.898,11.402,10.898z"/>
<path fill="#BC1B00" d="M4.039,10.679c0.622-0.255,1.198-0.445,1.732-0.574c0.13-0.031,0.245-0.06,0.383-0.085C6.281,9.995,6.405,9.97,6.525,9.95C6.715,9.924,6.9,9.898,7.083,9.884c0.153-0.012,0.302-0.021,0.45-0.021c0.142,0,0.281,0,0.417,0.008C8.07,9.877,8.187,9.886,8.304,9.9C8.402,9.91,8.499,9.923,8.593,9.94c0.199,0.033,0.394,0.077,0.58,0.129c0.757,0.214,1.429,0.579,2.046,0.989c-0.005,0.002-0.019-0.004-0.025-0.007c-0.006-0.002-0.009-0.002-0.014-0.006c-0.835-0.529-1.731-0.99-2.838-1.126c-1.133-0.14-2.454,0.056-4.231,0.762c0,0-0.042,0.019-0.059,0.02C4.039,10.704,4.041,10.693,4.039,10.679z"/>
<path fill="#BC1B00" d="M11.337,10.999c0,0,0.024,0.017,0.056,0.011l-0.123,0.056c-0.033,0.008-0.072-0.012-0.072-0.012L11.337,10.999z"/>
<path fill="#B81A00" d="M4.039,10.679c0,0,0.008,0.015,0.014,0.022c-0.011,0.001-0.014,0.005-0.043-0.008c-0.005-0.002-0.01-0.006-0.015-0.01l-0.128-0.099l-0.012-0.01c0.018-0.001,0.03,0.006,0.038,0.006L4.039,10.679z"/>
<path fill="#E82E00" d="M11.406,10.901c0.012,0.008,0.031,0.014,0.042,0.042c-0.007,0.036-0.038,0.054-0.056,0.066c-0.03,0.008-0.059-0.014-0.059-0.014C11.353,10.981,11.385,10.957,11.406,10.901z"/>
<path fill="#E32D00" d="M3.856,10.577c-0.019-0.013-0.036-0.069-0.025-0.105l0.025-0.006c-0.011,0.048,0.02,0.104,0.047,0.121C3.904,10.586,3.885,10.597,3.856,10.577z"/>
<linearGradient id="SVGID_34" gradientUnits="userSpaceOnUse" x1="5.78" y1="3.72" x2="5.82" y2="3.72">
<stop stop-color="#FD7E36" offset="0"/>
<stop stop-color="#BD6F4F" offset="1"/>
</linearGradient>
<path id="SVGID_37" fill="url(#SVGID_34)" d="M5.796,3.746L5.778,3.742c0.008-0.03,0.028-0.04,0.035-0.042l0.002-0.001C5.815,3.699,5.808,3.715,5.796,3.746z"/>
<path fill="#E82E00" d="M11.339,11c-1.838-1.277-4.093-2.079-7.44-0.416l0.137,0.097c3.658-1.494,5.564-0.688,7.168,0.372L11.339,11z"/>
<path fill="#E82E00" d="M11.337,10.999c-1.054-0.688-2.039-1.257-3.6-1.302c-1.14,0.022-2.017,0.17-3.836,0.89c-0.025-0.014-0.061-0.053-0.051-0.103c1.575-0.67,2.826-0.96,3.864-0.951c1.571,0.015,2.66,0.673,3.689,1.365C11.388,10.961,11.354,10.983,11.337,10.999z"/>
<path fill="#E32D00" d="M5.778,3.742l0.018,0.005l-1.94,6.734c-0.004-0.003-0.023-0.007-0.023-0.007L5.778,3.742z"/>
<linearGradient id="SVGID_35" gradientUnits="userSpaceOnUse" x1="5.79" y1="3.51" x2="13.36" y2="3.51">
<stop stop-color="#FC2B20" offset="0"/>
<stop stop-color="#FF590A" offset="0.24"/>
<stop stop-color="#FB570B" offset="0.25"/>
<stop stop-color="#E74C0E" offset="0.33"/>
<stop stop-color="#D84511" offset="0.42"/>
<stop stop-color="#D04013" offset="0.52"/>
<stop stop-color="#CD3F13" offset="0.7"/>
<stop stop-color="#D04213" offset="0.8"/>
<stop stop-color="#D84B14" offset="0.87"/>
<stop stop-color="#E65B16" offset="0.93"/>
<stop stop-color="#F97219" offset="0.99"/>
<stop stop-color="#FC7519" offset="1"/>
</linearGradient>
<path opacity="0.66" fill="url(#SVGID_35)" enable-background="new " d="M13.351,4.194C11.639,3.036,9.725,2.14,5.796,3.746c0.008-0.033,0.017-0.045,0.017-0.045c3.95-1.632,5.839-0.709,7.549,0.449L13.351,4.194z"/>
<path opacity="0.33" fill="#FE8411" enable-background="new " d="M13.123,4.417c-1.394-0.904-3.236-2.04-7.164-0.435c0.008-0.033,0.019-0.05,0.019-0.05c3.948-1.633,5.807-0.389,7.159,0.435L13.123,4.417z"/>
<g opacity="0.6">
<linearGradient id="SVGID_36" gradientUnits="userSpaceOnUse" x1="3.86" y1="7.25" x2="5.97" y2="7.25">
<stop stop-color="#FD7E36" offset="0"/>
<stop stop-color="#BD6F4F" offset="1"/>
</linearGradient>
<path opacity="0.6" fill="url(#SVGID_36)" enable-background="new " d="M5.86,3.79c-0.011,0.004-0.05,0-0.05,0l-1.955,6.778l0.139,0.113C4,10.686,4.005,10.689,4.01,10.692c0.024,0.011,0.031,0.011,0.038,0.009l1.921-6.748l0.006-0.021L5.86,3.79z"/>
</g>
<linearGradient id="SVGID_38" gradientUnits="userSpaceOnUse" x1="14" y1="4.57" x2="4.22" y2="2.39">
<stop stop-color="#FE550D" offset="0"/>
<stop stop-color="#8C1501" offset="1"/>
</linearGradient>
<path opacity="0.5" fill="url(#SVGID_38)" enable-background="new " d="M13.135,4.373c0.002,0.002,0.002,0.002,0.002,0.002c0-0.002,0.002-0.002,0.002-0.004L13.135,4.373z"/>
<linearGradient id="SVGID_39" gradientUnits="userSpaceOnUse" x1="9.57" y1="4.43" x2="9.49" y2="2.08">
<stop stop-color="#FE550D" offset="0"/>
<stop stop-color="#8C1501" offset="1"/>
</linearGradient>
<path opacity="0.5" fill="url(#SVGID_39)" enable-background="new " d="M13.182,4.219c-0.649-0.435-1.73-1.14-3.309-1.25C8.196,2.85,6.072,3.704,5.86,3.791l0.114,0.143L5.969,3.955C5.975,3.954,5.98,3.95,5.987,3.948c3.913-1.684,6.325-0.163,7.146,0.428l0.004-0.003l0.123-0.101C13.234,4.253,13.209,4.236,13.182,4.219z"/>
<path opacity="0.5" fill="#FFF4C5" enable-background="new " d="M5.86,3.79c0.211-0.088,2.336-0.941,4.013-0.822c1.579,0.111,2.66,0.816,3.309,1.25c0.027,0.019,0.053,0.034,0.076,0.052l0.121-0.099c-0.006-0.008-0.009-0.018-0.018-0.022c-1.672-1.133-3.519-2.041-7.292-0.554C5.984,3.63,5.901,3.663,5.813,3.699l0,0L5.86,3.79z"/>
<linearGradient id="SVGID_40" gradientUnits="userSpaceOnUse" x1="11.18" y1="7.61" x2="13.39" y2="7.61">
<stop stop-color="#FD7E36" offset="0"/>
<stop stop-color="#FC895B" offset="1"/>
</linearGradient>
<path opacity="0.6" fill="url(#SVGID_40)" enable-background="new " d="M13.361,4.151l-0.011,0.042l-0.093,0.077l-0.121,0.101c0,0.002-0.002,0.002-0.002,0.005c-0.407,1.398-1.679,5.761-1.95,6.67c0.003,0.001,0.005,0.002,0.008,0.003c0.002,0.001,0.004,0.002,0.004,0.002l0,0c0,0,0.041,0.021,0.072,0.012l0.123-0.057c-0.001,0.001-0.001,0-0.004,0.001c0.001-0.001,0.002,0,0.003-0.001c0.015-0.012,0.046-0.03,0.053-0.063l0,0v-0.001c0,0,0.001,0,0.001-0.002l0,0l1.864-6.439l0,0l0.049-0.159V4.336l0.029-0.106C13.395,4.211,13.393,4.166,13.361,4.151z"/>
<linearGradient id="SVGID_41" gradientUnits="userSpaceOnUse" x1="3.85" y1="10.26" x2="11.41" y2="10.26">
<stop stop-color="#FD9B20" offset="0.25"/>
<stop stop-color="#FDB830" offset="0.34"/>
<stop stop-color="#FDD23E" offset="0.43"/>
<stop stop-color="#FDDB43" offset="0.49"/>
<stop stop-color="#FE8411" offset="0.75"/>
<stop stop-color="#FE550D" offset="1"/>
</linearGradient>
<path opacity="0.5" fill="url(#SVGID_41)" enable-background="new " d="M11.342,10.996c-1.053-0.688-2.038-1.258-3.6-1.303c-1.141,0.023-2.017,0.169-3.834,0.89c-0.027-0.014-0.061-0.053-0.052-0.102C5.431,9.81,6.683,9.52,7.72,9.529c1.572,0.016,2.662,0.675,3.693,1.367C11.393,10.957,11.358,10.981,11.342,10.996z"/>
<path fill="#F83503" d="M13.361,4.149h0.002c0.027,0.018,0.033,0.051,0.029,0.083l-0.004,0.004c-0.01-0.013-0.019-0.024-0.037-0.043L13.361,4.149z"/>
<path id="SVGID_46" fill="url(#SVGID_34)" d="M5.796,3.746L5.778,3.742c0.008-0.03,0.028-0.04,0.035-0.042l0.003-0.001C5.815,3.699,5.808,3.715,5.796,3.746z"/>
<path opacity="0.66" fill="url(#SVGID_35)" enable-background="new " d="M13.351,4.194C11.639,3.036,9.725,2.14,5.796,3.746c0.008-0.033,0.017-0.045,0.017-0.045c3.95-1.632,5.839-0.709,7.549,0.449L13.351,4.194z"/>
<radialGradient id="SVGID_44" gradientUnits="userSpaceOnUse" cx="11.55" cy="11.9" r="10.5">
<stop stop-color="#D1E787" offset="0.01"/>
<stop stop-color="#CEE583" offset="0.12"/>
<stop stop-color="#C4DE76" offset="0.25"/>
<stop stop-color="#B3D361" offset="0.38"/>
<stop stop-color="#9CC443" offset="0.51"/>
<stop stop-color="#7FB01D" offset="0.64"/>
<stop stop-color="#7BAE19" offset="0.65"/>
<stop stop-color="#578D19" offset="0.78"/>
<stop stop-color="#366E1A" offset="0.92"/>
<stop stop-color="#29621A" offset="1"/>
</radialGradient>
<path fill="url(#SVGID_44)" d="M21.92,5.337c-3.941,1.63-5.838,0.712-7.545-0.437l-1.943,6.744c1.705,1.155,3.766,2.104,7.545,0.414L21.92,5.337z"/>
<linearGradient id="SVGID_45" gradientUnits="userSpaceOnUse" x1="14.38" y1="5.53" x2="21.96" y2="5.53">
<stop stop-color="#D3ED89" offset="0"/>
<stop stop-color="#5F811B" offset="1"/>
</linearGradient>
<path fill="url(#SVGID_45)" d="M21.912,5.343c-3.943,1.63-5.83,0.713-7.537-0.437c0.004-0.016,0.012-0.044,0-0.072c1.707,1.148,3.641,2.074,7.58,0.445C21.924,5.298,21.92,5.319,21.912,5.343z"/>
<polygon fill="#8CAC42" points="14.074,4.987 14.215,4.887 12.291,11.571 12.143,11.688 12.143,11.674 "/>
<linearGradient id="SVGID_47" gradientUnits="userSpaceOnUse" x1="13.42" y1="8.27" x2="13.24" y2="8.22">
<stop stop-color="#D3ED89" offset="0.4"/>
<stop stop-color="#5F811B" offset="1"/>
</linearGradient>
<path fill="url(#SVGID_47)" d="M12.436,11.646c-0.06-0.034-0.104-0.102-0.156-0.081l1.929-6.678c0.029-0.012,0.104-0.037,0.176,0.018L12.436,11.646z"/>
<path fill="#5F811B" d="M14.232,4.844l-0.02,0.047l-0.141,0.103c0.012-0.045,0.119-0.121,0.151-0.145C14.23,4.844,14.232,4.844,14.232,4.844z"/>
<linearGradient id="SVGID_48" gradientUnits="userSpaceOnUse" x1="14.38" y1="4.86" x2="14.21" y2="4.85">
<stop stop-color="#7AA922" offset="0"/>
<stop stop-color="#D3ED89" offset="0.2"/>
<stop stop-color="#D3ED89" offset="0.53"/>
<stop stop-color="#7AA922" offset="1"/>
</linearGradient>
<path fill="url(#SVGID_48)" d="M14.375,4.901c-0.072-0.044-0.139-0.021-0.168-0.009c0.006-0.014,0.018-0.044,0.018-0.044c0.064-0.04,0.09-0.041,0.15-0.012C14.385,4.857,14.387,4.881,14.375,4.901z"/>
<linearGradient id="SVGID_49" gradientUnits="userSpaceOnUse" x1="20.11" y1="8.8" x2="22.22" y2="8.8">
<stop stop-color="#7AA922" offset="0.01"/>
<stop stop-color="#1D4A20" offset="0.17"/>
<stop stop-color="#26551B" offset="0.38"/>
<stop stop-color="#7AA922" offset="1"/>
</linearGradient>
<polygon opacity="0.81" fill="url(#SVGID_49)" enable-background="new " points="20.107,12.089 22.057,5.375 22.217,5.502 20.256,12.219 "/>
<path fill="#476E32" d="M20.293,12.268c0.006-0.038-0.033-0.069-0.033-0.069l1.953-6.702c0,0,0.031,0.028,0.039,0.046L20.293,12.268z"/>
<path fill="#1D3419" d="M20.229,12.33c-1.053,0.479-2.049,0.725-2.975,0.805c-1.6,0.18-2.893-0.166-3.947-0.686c-0.411-0.188-0.781-0.401-1.112-0.624l0.017-0.013c0.334,0.224,0.697,0.443,1.095,0.638c1.072,0.491,2.412,0.817,3.947,0.685c0.873-0.099,1.838-0.356,2.906-0.829C20.191,12.329,20.229,12.33,20.229,12.33z"/>
<linearGradient id="SVGID_50" gradientUnits="userSpaceOnUse" x1="20.13" y1="12.13" x2="19.96" y2="12.12">
<stop stop-color="#7AA922" offset="0"/>
<stop stop-color="#D3ED89" offset="1"/>
</linearGradient>
<path fill="url(#SVGID_50)" d="M20.025,12.208c0,0-0.076-0.067-0.064-0.166c0.105-0.025,0.17,0.037,0.17,0.037S20.109,12.173,20.025,12.208z"/>
<linearGradient id="SVGID_51" gradientUnits="userSpaceOnUse" x1="20.2" y1="12.14" x2="20.09" y2="12.26">
<stop stop-color="#5F811B" offset="0"/>
<stop stop-color="#26551B" offset="1"/>
</linearGradient>
<path fill="url(#SVGID_51)" d="M20.121,12.076l0.139,0.125c0,0-0.02,0.077-0.105,0.115l-0.146-0.125C20.096,12.155,20.121,12.076,20.121,12.076z"/>
<linearGradient id="SVGID_52" gradientUnits="userSpaceOnUse" x1="12.36" y1="12.35" x2="20.04" y2="12.35">
<stop stop-color="#7AA922" offset="0"/>
<stop stop-color="#D3ED89" offset="0.4"/>
<stop stop-color="#7AA922" offset="1"/>
</linearGradient>
<path fill="url(#SVGID_52)" d="M19.977,12.036c-0.014,0.099,0.061,0.171,0.061,0.171c-3.939,1.631-5.971,0.673-7.679-0.484c0.031-0.021,0.037-0.021,0.055-0.093C14.117,12.787,16.697,13.597,19.977,12.036z"/>
<path fill="#26551B" d="M12.212,11.819l0.147-0.099c1.707,1.102,3.723,2.05,7.66,0.467l0.141,0.125C16.381,13.979,13.965,13.051,12.212,11.819z"/>
<path fill="#5F811B" d="M20.293,12.268c-0.018,0.036-0.053,0.058-0.064,0.063c-0.004,0.001-0.004,0.001-0.004,0.001s-0.027,0.005-0.064-0.021c0.078-0.041,0.1-0.127,0.1-0.127S20.305,12.224,20.293,12.268z"/>
<path fill="#26551B" d="M12.218,11.818l-0.018,0.013c0,0-0.096-0.052-0.06-0.157C12.15,11.778,12.218,11.818,12.218,11.818z"/>
<linearGradient id="SVGID_53" gradientUnits="userSpaceOnUse" x1="12.31" y1="11.77" x2="12.19" y2="11.63">
<stop stop-color="#1D3A19" offset="0"/>
<stop stop-color="#26551B" offset="0.1"/>
<stop stop-color="#7AA922" offset="0.65"/>
<stop stop-color="#D3ED89" offset="1"/>
</linearGradient>
<path fill="url(#SVGID_53)" d="M12.143,11.674l0.142-0.112c-0.008,0.107,0.084,0.152,0.084,0.152l-0.143,0.11C12.225,11.826,12.134,11.781,12.143,11.674z"/>
<linearGradient id="SVGID_54" gradientUnits="userSpaceOnUse" x1="12.31" y1="11.55" x2="12.4" y2="11.71">
<stop stop-color="#5F811B" offset="0"/>
<stop stop-color="#7AA922" offset="0.4"/>
<stop stop-color="#5F811B" offset="0.8"/>
</linearGradient>
<path fill="url(#SVGID_54)" d="M12.28,11.562c0.048-0.017,0.092,0.035,0.152,0.083c-0.021,0.069-0.035,0.058-0.068,0.078C12.332,11.704,12.271,11.651,12.28,11.562z"/>
<linearGradient id="SVGID_55" gradientUnits="userSpaceOnUse" x1="22.13" y1="5.44" x2="22.15" y2="5.36">
<stop stop-color="#5B7F30" offset="0"/>
<stop stop-color="#D3ED89" offset="1"/>
</linearGradient>
<path opacity="0.72" fill="url(#SVGID_55)" enable-background="new " d="M22.229,5.432c0.002,0.026-0.016,0.067-0.016,0.067l-0.152-0.123c0,0,0.021-0.05,0.01-0.087C22.123,5.312,22.221,5.417,22.229,5.432z"/>
<linearGradient id="SVGID_56" gradientUnits="userSpaceOnUse" x1="21.97" y1="6.52" x2="14.26" y2="4.3">
<stop stop-color="#1D3419" offset="0"/>
<stop stop-color="#26551B" offset="0.23"/>
<stop stop-color="#7AA922" offset="1"/>
</linearGradient>
<path opacity="0.33" fill="url(#SVGID_56)" enable-background="new " d="M22.225,5.426c-0.029-0.041-0.074-0.074-0.109-0.109c-0.068-0.06-0.15-0.046-0.17-0.035l-0.002,0.001c-3.932,1.623-5.862,0.698-7.568-0.449c0.004,0.006,0.004,0.016,0.004,0.023c0-0.007,0-0.017-0.004-0.023c-0.062-0.028-0.086-0.027-0.15,0.012C14.199,4.863,14.137,4.91,14.1,4.95C14.76,5.503,17.545,7.688,22.225,5.426z M14.375,4.901L14.375,4.901L14.375,4.901C14.375,4.901,14.375,4.901,14.375,4.901L14.375,4.901c0.004-0.009,0.004-0.017,0.008-0.025C14.379,4.885,14.379,4.895,14.375,4.901z"/>
<linearGradient id="SVGID_57" gradientUnits="userSpaceOnUse" x1="21.1" y1="8.73" x2="20.93" y2="8.68">
<stop stop-color="#5F811B" offset="0"/>
<stop stop-color="#75C145" offset="1"/>
</linearGradient>
<path opacity="0.72" fill="url(#SVGID_57)" enable-background="new " d="M19.959,12.052l1.949-6.711c0.105-0.019,0.156,0.042,0.156,0.042l-1.944,6.695C20.121,12.076,20.041,12.017,19.959,12.052z"/>
<linearGradient id="SVGID_58" gradientUnits="userSpaceOnUse" x1="21.91" y1="5.41" x2="22.26" y2="5.41">
<stop stop-color="#D3ED89" offset="0"/>
<stop stop-color="#5F811B" offset="1"/>
</linearGradient>
<path opacity="0.6" fill="url(#SVGID_58)" enable-background="new " d="M21.912,5.343c0.006-0.025,0.01-0.037,0.033-0.061c0.02-0.011,0.102-0.025,0.17,0.035c0.064,0.062,0.166,0.131,0.137,0.225c-0.01-0.019-0.039-0.043-0.039-0.043l-0.148-0.118C22.064,5.381,22.016,5.324,21.912,5.343z"/>
<linearGradient id="SVGID_59" gradientUnits="userSpaceOnUse" x1="21.94" y1="6.6" x2="14.24" y2="4.39">
<stop stop-color="#93BF81" offset="0"/>
<stop stop-color="#26551B" offset="0.23"/>
<stop stop-color="#BDE256" offset="1"/>
</linearGradient>
<path opacity="0.3" fill="url(#SVGID_59)" enable-background="new " d="M14.101,4.952c-0.011,0.013-0.021,0.023-0.022,0.034l-0.002,0.002l-0.01,0.023c0.594,0.501,3.408,2.813,8.189,0.486c-0.003-0.025-0.014-0.049-0.031-0.071C17.545,7.688,14.76,5.503,14.101,4.952z"/>
<path opacity="0.72" fill="url(#SVGID_55)" enable-background="new " d="M22.229,5.432c0.002,0.026-0.016,0.067-0.016,0.067l-0.152-0.123c0,0,0.021-0.05,0.01-0.087C22.123,5.312,22.221,5.417,22.229,5.432z"/>
<path opacity="0.6" fill="url(#SVGID_58)" enable-background="new " d="M21.912,5.343c0.006-0.025,0.01-0.037,0.033-0.061c0.02-0.011,0.104-0.025,0.17,0.035c0.064,0.062,0.17,0.129,0.138,0.226c-0.011-0.02-0.038-0.044-0.038-0.044l-0.15-0.118C22.064,5.381,22.016,5.324,21.912,5.343z"/>
</svg>