<?xml version="1.0" encoding="UTF-8" standalone="no"?>
<!DOCTYPE svg PUBLIC "-//W3C//DTD SVG 1.1 Tiny//EN" "http://www.w3.org/Graphics/SVG/1.1/DTD/svg11-tiny.dtd">
<svg xmlns="http://www.w3.org/2000/svg" xmlns:xlink="http://www.w3.org/1999/xlink" width="44" height="44" viewBox="36.537 17.377 44 44">
<rect fill="none" height="44" width="44" x="36.537" y="17.377"/>
<linearGradient id="SVGID_1" gradientUnits="userSpaceOnUse" x1="49.26" y1="25.84" x2="49.26" y2="42.11">
<stop stop-color="#A6A6A6" offset="0"/>
<stop stop-color="#888888" offset="0.61"/>
<stop stop-color="#737373" offset="1"/>
</linearGradient>
<path d="M59.806,41.027l0.178-14.559l-0.026-0.026c-0.103-0.478-0.597-0.585-0.597-0.585H39.244 c0,0-0.623,0.075-0.637,0.771c-0.003,0.188-0.069,14.318-0.069,14.318c-0.001,0.019-0.003,0.095,0.007,0.2 c0.018,0.181,0.075,0.453,0.24,0.678c0.109,0.148,0.301,0.326,0.601,0.326l19.55,0.002c0.283,0,0.475-0.163,0.586-0.303 C59.778,41.532,59.803,41.109,59.806,41.027z" fill="url(#SVGID_1)"/>
<linearGradient id="SVGID_2" gradientUnits="userSpaceOnUse" x1="49.23" y1="26.81" x2="49.23" y2="41.55">
<stop stop-color="#ACC7DD" offset="0"/>
<stop stop-color="#EDF7FF" offset="1"/>
</linearGradient>
<path d="M59.312,26.748l-0.117,14.193c0,0-0.012,0.545-0.401,0.545c-2.61,0-18.931-0.003-19.249-0.003 c-0.426,0-0.393-0.621-0.393-0.621l0.126-14.114H59.312" fill="url(#SVGID_2)"/>
<g fill-opacity="0.33" stroke-opacity="0.33">
<polygon points="58.848,40.986 40.23,40.684 47.141,32.271 52.228,32.271 "/>
</g>
<g fill-opacity="0.33" stroke-opacity="0.33">
<polygon points="58.125,40.685 39.498,40.985 46.292,32.271 51.379,32.271 "/>
</g>
<linearGradient id="SVGID_3" gradientUnits="userSpaceOnUse" x1="49.17" y1="32.61" x2="49.17" y2="43.16">
<stop stop-color="#D1E2EE" offset="0"/>
<stop stop-color="#E4F3FF" offset="1"/>
</linearGradient>
<polygon fill="url(#SVGID_3)" points="58.848,41.323 39.498,41.322 46.717,32.608 51.803,32.608 "/>
<path d="M57.54,41.097c0,0-3.083-0.301-8.173-0.301 s-8.184,0.301-8.184,0.301" fill="#FFFFFF" fill-opacity="0.8" />
<path d="M39.498,41.322c0,0,5.426-5.472,6.864-7.623l-0.379-0.135 L39.498,41.322z" fill="#FFFFFF" fill-opacity="0.6" />
<path d="M58.855,41.322l-6.354-7.763l-0.383,0.135 C53.491,35.847,58.855,41.322,58.855,41.322z" fill="#FFFFFF" fill-opacity="0.6" />
<path d="M39.544,41.483c-0.426,0-0.393-0.621-0.393-0.621 l0.126-14.114h0.447L39.54,40.862c0,0-0.036,0.621,0.39,0.621H39.544L39.544,41.483z" fill="#FFFFFF" fill-opacity="0.4" />
<path d="M58.407,41.486c0.149,0,0.279,0,0.386,0 c0.39,0,0.401-0.545,0.401-0.545l0.118-14.193h-0.447l-0.059,14.193C58.807,40.941,58.797,41.486,58.407,41.486z" fill="#FFFFFF" fill-opacity="0.4" />
<g fill-opacity="0.4" stroke-opacity="0.4">
<path d="M39.278,26.75c0,0,8.156,10.261,9.93,10.261S59.312,26.75,59.312,26.75H39.278z"/>
</g>
<linearGradient id="SVGID_4" gradientUnits="userSpaceOnUse" x1="49.29" y1="35.82" x2="49.29" y2="26.75">
<stop stop-color="#EEEEEE" offset="0"/>
<stop stop-color="#ECECEC" offset="0.02"/>
<stop stop-color="#C7C7C7" offset="0.31"/>
<stop stop-color="#ACACAC" offset="0.58"/>
<stop stop-color="#9C9C9C" offset="0.82"/>
<stop stop-color="#969696" offset="1"/>
</linearGradient>
<path d="M59.312,26.748H39.277c0,0,8.403,9.077,9.935,9.077 C50.743,35.825,59.312,26.748,59.312,26.748z" fill="url(#SVGID_4)"/>
<linearGradient id="SVGID_5" gradientUnits="userSpaceOnUse" x1="49.29" y1="35.33" x2="49.29" y2="26.52">
<stop stop-color="#FFFFFF" offset="0"/>
<stop stop-color="#D5E9F7" offset="1"/>
</linearGradient>
<path d="M59.103,26.524c-0.118,0-19.495,0-19.611,0c-0.238,0-0.214,0.224-0.214,0.224 s8.581,8.578,9.939,8.578s10.095-8.578,10.095-8.578S59.339,26.524,59.103,26.524z" fill="url(#SVGID_5)"/>
<path d="M59.103,26.524c-0.118,0-19.495,0-19.611,0 c-0.238,0-0.214,0.168-0.214,0.168s8.581,6.449,9.939,6.449s10.095-6.449,10.095-6.449S59.339,26.524,59.103,26.524z" fill="#FFFFFF" fill-opacity="0.8" />
<linearGradient id="SVGID_6" gradientUnits="userSpaceOnUse" x1="58.51" y1="35.84" x2="58.51" y2="52.9">
<stop stop-color="#8418A8" offset="0"/>
<stop stop-color="#4A005C" offset="1"/>
</linearGradient>
<path d="M58.512,52.899c-6.571,0-11.161-3.509-11.161-8.533c0-5.022,4.589-8.529,11.161-8.529 c6.57,0,11.158,3.507,11.158,8.529C69.671,49.39,65.082,52.899,58.512,52.899L58.512,52.899z" fill="url(#SVGID_6)"/>
<linearGradient id="SVGID_7" gradientUnits="userSpaceOnUse" x1="72.51" y1="48.54" x2="72.51" y2="52.62">
<stop stop-color="#8418A8" offset="0"/>
<stop stop-color="#4A005C" offset="1"/>
</linearGradient>
<polygon fill="url(#SVGID_7)" points="74.239,52.623 73.57,52.542 71.01,52.228 70.342,52.145 70.423,51.477 70.701,49.205 70.783,48.537 71.452,48.619 74.014,48.933 74.683,49.014 74.6,49.683 74.32,51.955 "/>
<linearGradient id="SVGID_8" gradientUnits="userSpaceOnUse" x1="74.11" y1="36" x2="74.11" y2="47.87">
<stop stop-color="#8418A8" offset="0"/>
<stop stop-color="#4A005C" offset="1"/>
</linearGradient>
<polygon fill="url(#SVGID_8)" points="74.252,47.871 73.66,47.798 71.784,47.568 71.193,47.495 71.192,46.901 71.175,36.764 71.174,35.999 71.934,36.095 76.29,36.644 77.043,36.74 76.858,37.476 74.396,47.292 "/>
<linearGradient id="SVGID_9" gradientUnits="userSpaceOnUse" x1="58.51" y1="36.51" x2="58.51" y2="52.23">
<stop stop-color="#B340D9" offset="0"/>
<stop stop-color="#7B0099" offset="1"/>
</linearGradient>
<path d="M58.513,52.226c-6.175,0-10.487-3.231-10.487-7.86c0-4.624,4.312-7.855,10.487-7.855 c6.173,0,10.485,3.231,10.485,7.855C68.998,48.995,64.686,52.226,58.513,52.226z" fill="url(#SVGID_9)"/>
<linearGradient id="SVGID_10" gradientUnits="userSpaceOnUse" x1="72.51" y1="49.29" x2="72.51" y2="51.87">
<stop stop-color="#B340D9" offset="0"/>
<stop stop-color="#7B0099" offset="1"/>
</linearGradient>
<polygon fill="url(#SVGID_10)" points="73.652,51.873 71.092,51.558 71.37,49.288 73.932,49.601 "/>
<linearGradient id="SVGID_11" gradientUnits="userSpaceOnUse" x1="74.03" y1="36.76" x2="74.03" y2="47.13">
<stop stop-color="#B340D9" offset="0"/>
<stop stop-color="#7B0099" offset="1"/>
</linearGradient>
<polygon fill="url(#SVGID_11)" points="71.849,36.762 71.865,46.899 73.743,47.129 76.205,37.312 "/>
<g fill-opacity="0.66" stroke-opacity="0.66">
<linearGradient id="SVGID_12" gradientUnits="userSpaceOnUse" x1="58.51" y1="36.66" x2="58.51" y2="48.71">
<stop stop-color="#FFFFFF" offset="0"/>
<stop stop-color="#8A26A3" offset="1"/>
</linearGradient>
<path d="M58.513,48.711c-4.936,0-8.382-2.479-8.382-6.028c0-3.548,3.447-6.026,8.382-6.026 c4.934,0,8.38,2.479,8.38,6.026C66.893,46.232,63.446,48.711,58.513,48.711L58.513,48.711z" fill="url(#SVGID_12)"/>
<linearGradient id="SVGID_13" gradientUnits="userSpaceOnUse" x1="72.33" y1="49.81" x2="72.33" y2="50.82">
<stop stop-color="#FFFFFF" offset="0"/>
<stop stop-color="#8A26A3" offset="1"/>
</linearGradient>
<polygon fill="url(#SVGID_13)" points="72.93,50.822 71.616,50.666 71.725,49.805 73.038,49.962 "/>
<linearGradient id="SVGID_14" gradientUnits="userSpaceOnUse" x1="73.3" y1="37.3" x2="73.3" y2="45.41">
<stop stop-color="#FFFFFF" offset="0"/>
<stop stop-color="#8A26A3" offset="1"/>
</linearGradient>
<polygon fill="url(#SVGID_14)" points="72.375,45.413 72.271,45.4 72.258,37.304 74.344,37.567 "/>
</g>
<path fill-opacity="0.25" d="M62.098,49.658l-0.682-0.047c-0.188-0.013-1.543-0.013-1.988-0.013h-0.654h-0.525 c-0.213,0-0.614,0.01-1.052,0.02c-0.543,0.013-1.145,0.026-1.532,0.026c-0.105,0-0.197-0.001-0.268-0.003l-0.777-0.023 l0.134-0.766l0.102-0.579l0.09-0.516l0.521-0.04c0.075-0.006,0.201-0.007,0.357-0.007c0.174-0.001,0.627-0.002,0.901-0.041 c-0.001-0.046-0.001-0.093-0.002-0.141c-0.002-0.129-0.004-0.284-0.004-0.477v-0.386c0-0.144,0-0.393-0.025-0.633 c-0.372-0.597-2.491-3.226-3.205-3.883c-0.183-0.029-0.515-0.071-0.751-0.101c-0.443-0.057-0.724-0.093-0.883-0.127l-0.518-0.111 l-0.015-0.528l-0.015-0.522l-0.013-0.427l0.38-0.193c0.179-0.09,0.375-0.105,0.775-0.105c0.169,0,0.375,0.003,0.605,0.008 l0.096,0.001c0.258,0.004,0.547,0.008,0.849,0.008c0.297,0,0.607-0.004,0.916-0.016c0.274-0.01,0.655-0.015,1.06-0.015 c0.776,0,2.015,0.02,2.273,0.049l0.686,0.08l-0.097,0.684l-0.065,0.462l-0.063,0.448l-0.44,0.109 c-0.165,0.043-0.426,0.063-0.862,0.091c0.388,0.525,0.803,1.06,1.163,1.524c0.16,0.206,0.31,0.4,0.445,0.576 c0.103-0.084,0.218-0.177,0.348-0.282c0.193-0.157,0.482-0.393,0.752-0.625c-0.162-0.021-0.29-0.035-0.341-0.037l-0.54-0.021 l-0.114-0.532l-0.109-0.594l-0.124-0.681l0.683-0.105c0.099-0.016,0.26-0.029,0.771-0.029c0.331,0,0.736,0.006,1.125,0.012 c0.352,0.005,0.69,0.01,0.946,0.01c1.148,0,2.266,0.004,2.661,0.036l1.162,0.096l-0.663,0.959l-0.386,0.56l-0.177,0.256 l-0.31,0.031c-0.148,0.016-0.897,0.178-1.18,0.239l-0.167,0.036c-0.525,0.284-2.853,2.136-3.216,2.659 c-0.023,0.149-0.037,0.368-0.037,0.589l-0.024,0.509c0.001,0.117,0.022,0.308,0.049,0.499c0.126,0.001,0.259,0.001,0.369,0.002 c0.642,0.002,0.941,0.007,1.112,0.035l0.595,0.099l-0.032,0.603l-0.032,0.607L62.098,49.658L62.098,49.658z" fill="#A02DBD"/>
<path d="M64.631,42.427c-0.228,0.023-1.172,0.234-1.489,0.302c-0.34,0.091-3.445,2.489-3.649,3.08 c-0.045,0.204-0.067,0.517-0.067,0.812l-0.022,0.476c0,0.341,0.094,0.888,0.14,1.184c0.203,0.045,1.681,0.005,1.953,0.051 l-0.033,0.608c-0.266-0.019-2.142-0.014-3.214-0.014c-0.545,0-2.293,0.059-2.831,0.043l0.101-0.579 c0.295-0.023,1.514,0.053,1.783-0.23c0.133-0.142,0.091-0.291,0.091-1.107v-0.385c0-0.183,0-0.521-0.045-0.839 c-0.113-0.34-2.849-3.755-3.552-4.3c-0.204-0.067-1.482-0.195-1.799-0.264l-0.015-0.522c0.157-0.079,1.579,0.021,2.959-0.031 c0.906-0.033,2.976,0,3.23,0.03l-0.065,0.46c-0.273,0.069-1.582,0.094-1.922,0.185c0.883,1.313,2.282,3.007,2.735,3.664 c0.25-0.362,2.442-1.87,2.509-2.391c-0.341-0.068-1.467-0.231-1.647-0.231l-0.108-0.594c0.309-0.048,1.932,0,2.738,0 c0.696,0,2.184,0,2.606,0.035L64.631,42.427z" fill="#FFFFFF"/>
<polygon fill="#7B0099" points="76.299,48.863 75.897,48.863 75.897,48.634 76.949,48.634 76.949,48.863 76.547,48.863 76.547,49.935 76.299,49.935 "/>
<polygon fill="#7B0099" points="77.229,48.634 77.493,48.634 77.887,49.251 78.28,48.634 78.537,48.634 78.537,49.935 78.297,49.935 78.297,49.01 77.896,49.634 77.87,49.634 77.469,49.01 77.469,49.935 77.229,49.935 "/>
</svg>