<?xml version="1.0" encoding="UTF-8" standalone="no"?>
<!DOCTYPE svg PUBLIC "-//W3C//DTD SVG 1.1 Tiny//EN" "http://www.w3.org/Graphics/SVG/1.1/DTD/svg11-tiny.dtd">
<svg xmlns="http://www.w3.org/2000/svg" xmlns:xlink="http://www.w3.org/1999/xlink" width="500" height="500" viewBox="0 0 500 500">
<rect fill="none" height="500" width="500"/>
<path d="M169.625,0L0,169.625v8.932L178.556,0H169.625z M133.928,0L0,133.926v8.931L142.856,0 H133.928z M151.764,0L0,151.763v8.932L160.694,0H151.764z M116.057,0L0,116.058v8.937L124.995,0H116.057z M223.192,0L0,223.191 v8.932L232.123,0H223.192z M187.485,0L0,187.486v8.937L196.424,0H187.485z M205.355,0L0,205.354v8.931L214.285,0H205.355z M62.499,0 L0,62.498v8.93L71.429,0H62.499z M44.629,0L0,44.63v8.937L53.566,0H44.629z M26.769,0L0,26.769V35.7L35.699,0H26.769z M8.907,0 L0,8.906v8.931L17.838,0H8.907z M241.054,0L0,241.054v8.932L249.984,0H241.054z M80.335,0L0,80.334v8.932L89.266,0H80.335z M98.197,0L0,98.196v8.932L107.128,0H98.197z M455.339,0L0,455.34v8.932L464.27,0H455.339z M258.914,0L0,258.915v8.937L267.852,0 H258.914z M383.91,0L0,383.91v8.932L392.841,0H383.91z M401.771,0L0,401.771v8.938L410.709,0H401.771z M437.478,0L0,437.477v8.932 L446.408,0H437.478z M499.998,0v8.932L8.933,500h8.929L499.998,17.862v8.932L26.794,500h8.933L499.998,35.725v8.935L44.658,500 h8.933L499.998,53.592v8.932L62.522,500h8.906L499.998,71.428v8.932L80.36,500h8.93L499.998,89.291v8.931L98.223,500h8.932 l392.844-392.847v8.934L116.087,500h8.932l374.979-374.98v8.932L133.951,500h8.905l357.142-357.144v8.932L151.789,500h8.93 l339.279-339.281v8.932L169.65,500h8.933l321.415-321.418v8.934L187.515,500h8.933l303.551-303.552v8.932L205.38,500h8.905 l285.713-285.715v8.932L223.217,500h8.93l267.852-267.853v8.932L241.079,500h8.932l249.987-249.989v8.934L258.943,500h8.933 l232.122-232.123v8.932L276.808,500h8.905l214.285-214.286v8.932L294.646,500h8.93l196.423-196.424v8.932L312.507,500h8.933 l178.559-178.562v8.935L330.372,500h8.932l160.694-160.694v8.932L348.236,500h8.905l142.856-142.856v8.931L366.074,500h8.929 l124.995-124.994v8.93L383.936,500h8.933l107.13-107.133v8.934L401.8,500h8.933l89.266-89.266v8.932L419.664,500h8.906l71.428-71.43 v8.932L437.502,500h8.93l53.566-53.566v8.932L455.364,500h8.932l35.702-35.703v8.936L473.229,500h8.933l17.837-17.836v8.93 L491.093,500H500V0H499.998z M473.199,0L0,473.201v8.936L482.137,0H473.199z M0,491.07V500L499.998,0h-8.929L0,491.07z M419.641,0 L0,419.641v8.93L428.57,0H419.641z M312.482,0L0,312.482v8.932L321.413,0H312.482z M294.62,0L0,294.62v8.932L303.551,0H294.62z M276.784,0L0,276.783v8.931L285.713,0H276.784z M366.049,0L0,366.049v8.932L374.979,0H366.049z M330.342,0L0,330.344v8.937 L339.28,0H330.342z M348.213,0L0,348.212v8.932L357.142,0H348.213z" fill="#1A1A1A" fill-opacity="0.18" />
<path d="M0,500h8.933L499.998,8.932V0L0,500z M53.591,500h8.932L499.998,62.523v-8.932L53.591,500z M35.725,500h8.934l455.34-455.341v-8.935L35.725,500z M17.861,500h8.933L499.998,26.794v-8.932L17.861,500z M125.019,500h8.933 l366.047-366.049v-8.932L125.019,500z M107.153,500h8.934l383.911-383.913v-8.934L107.153,500z M89.29,500h8.933L499.998,98.222 v-8.931L89.29,500z M160.719,500h8.932l330.348-330.35v-8.932L160.719,500z M196.447,500h8.933l294.618-294.62v-8.932L196.447,500z M178.581,500h8.934l312.483-312.484v-8.934L178.581,500z M250.01,500h8.934l241.055-241.056v-8.934L250.01,500z M267.876,500h8.932 l223.19-223.191v-8.932L267.876,500z M232.146,500h8.933l258.919-258.921v-8.932L232.146,500z M321.438,500h8.935l169.626-169.627 v-8.935L321.438,500z M303.575,500h8.932l187.491-187.492v-8.932L303.575,500z M339.304,500h8.933l151.762-151.763v-8.932 L339.304,500z M392.866,500h8.934l98.198-98.199v-8.934L392.866,500z M375.003,500h8.933l116.063-116.064v-8.93L375.003,500z M410.732,500h8.932l80.334-80.334v-8.932L410.732,500z M437.502,500l62.496-62.498v-8.932L428.57,500H437.502z M491.093,500 l8.905-8.906v-8.93L482.161,500H491.093z M455.364,500l44.634-44.635v-8.932L446.432,500H455.364z M473.229,500l26.77-26.768v-8.936 L464.295,500H473.229z M71.429,500h8.932L499.998,80.359v-8.932L71.429,500z M142.856,500h8.933l348.209-348.212v-8.932L142.856,500 z M214.285,500h8.932l276.781-276.783v-8.932L214.285,500z M285.713,500h8.933l205.353-205.354v-8.932L285.713,500z M357.142,500 h8.933l133.924-133.926v-8.931L357.142,500z M98.197,0h-8.932L0,89.266v8.931L98.197,0z M116.057,0h-8.929L0,107.128v8.93L116.057,0 z M133.928,0h-8.933L0,124.994v8.932L133.928,0z M80.335,0h-8.906L0,71.428v8.906L80.335,0z M0,0v8.906L8.907,0H0z M53.566,0 L0,53.566v8.932L62.499,0H53.566z M17.838,0L0,17.837v8.932L26.769,0H17.838z M35.699,0L0,35.7v8.93L44.629,0H35.699z M187.485,0 h-8.93L0,178.557v8.93L187.485,0z M205.355,0h-8.932L0,196.423v8.932L205.355,0z M151.764,0h-8.907L0,142.856v8.906L151.764,0z M169.625,0h-8.931L0,160.694v8.931L169.625,0z M241.054,0h-8.931L0,232.123v8.931L241.054,0z M223.192,0h-8.907L0,214.285v8.906 L223.192,0z M276.784,0h-8.933L0,267.852v8.932L276.784,0z M258.914,0h-8.93L0,249.985v8.93L258.914,0z M330.342,0h-8.929L0,321.414 v8.93L330.342,0z M348.213,0h-8.933L0,339.28v8.932L348.213,0z M312.482,0h-8.932L0,303.552v8.931L312.482,0z M294.62,0h-8.907 L0,285.714v8.906L294.62,0z M401.771,0h-8.93L0,392.842v8.93L401.771,0z M419.641,0h-8.932L0,410.709v8.932L419.641,0z M383.91,0 h-8.931L0,374.98v8.93L383.91,0z M366.049,0h-8.907L0,357.144v8.905L366.049,0z M491.069,0h-8.933L0,482.137v8.934L491.069,0z M473.199,0h-8.93L0,464.271v8.93L473.199,0z M437.478,0h-8.907L0,428.57v8.906L437.478,0z M455.339,0h-8.931L0,446.408v8.932 L455.339,0z" fill="#FFFFFF" fill-opacity="0.18" />
</svg>