<?xml version="1.0" encoding="utf-8"?>
<!-- Generator: Adobe Illustrator 12.0.1, SVG Export Plug-In . SVG Version: 6.00 Build 51448)  -->
<!DOCTYPE svg PUBLIC "-//W3C//DTD SVG 1.1 Tiny//EN" "http://www.w3.org/Graphics/SVG/1.1/DTD/svg11-tiny.dtd" [
	<!ENTITY ns_svg "http://www.w3.org/2000/svg">
	<!ENTITY ns_xlink "http://www.w3.org/1999/xlink">
]>
<svg  version="1.1" baseProfile="tiny" id="Layer_1" xmlns="&ns_svg;" xmlns:xlink="&ns_xlink;" width="21" height="20"
	 viewBox="0 0 21 20" xml:space="preserve">
<rect fill="none" width="21" height="20"/>
<path fill="#1A171B" d="M17,11c0,1.753,0,3,0,3c0,0.552-0.448,1-1,1H5c-0.552,0-1-0.448-1-1c0,0,0-1.247,0-3H0v4c0,2.2,1.8,4,4,4h13
	c2.2,0,4-1.8,4-4v-4H17z"/>
<path fill="#1496F0" d="M18,12c0,0.889,0,2,0,2c0,1.103-0.897,2-2,2H5c-1.103,0-2-0.897-2-2c0,0,0-1.111,0-2c-0.75,0-1.25,0-2,0
	c0,1.125,0,3,0,3c0,1.654,1.346,3,3,3h13c1.654,0,3-1.346,3-3c0,0,0-1.875,0-3C19.25,12,18.75,12,18,12z"/>
<polygon fill="#1A7825" points="8,1 8,9 5,9 11,15 16.991,9 14,9 14,1 "/>
<path fill="#6BF638" d="M9,2c0,1.531,0,8,0,8s-1.401,0-1.586,0c1.46,1.46,2.84,2.839,3.585,3.585
	c0.746-0.746,2.123-2.125,3.58-3.585C14.398,10,13,10,13,10s0-6.469,0-8C11.889,2,10.111,2,9,2z"/>
</svg>
